<svg xmlns="http://www.w3.org/2000/svg" width="208.06214642995792" height="248.27118618497673" version="1.1"><rect id="backgroundrect" width="100%" height="100%" x="0" y="0" fill="none" stroke="none" class="selected"/><g class="currentLayer"><title>Layer 1</title><path fill="#d1d1d1" opacity="1" d="M78.56722946166992,3.6762710571289077 C86.36722946166992,1.876271057128907 95.36722946166992,1.876271057128907 101.96722946166992,6.976271057128905 C108.66722946166993,11.876271057128903 111.06722946166991,20.576271057128906 111.36722946166992,28.576271057128906 C111.46722946166992,37.77627105712891 111.36722946166992,47.076271057128906 111.36722946166992,56.3762710571289 C109.66722946166993,56.576271057128906 108.06722946166991,56.8762710571289 106.36722946166992,57.1762710571289 C106.36722946166992,47.27627105712891 106.36722946166992,37.476271057128905 106.36722946166992,27.576271057128906 C106.16722946166993,20.976271057128905 104.06722946166991,13.576271057128906 98.06722946166991,9.876271057128903 C91.86722946166992,6.176271057128908 84.26722946166993,6.976271057128905 77.56722946166992,8.576271057128906 C70.56722946166992,10.276271057128909 63.26722946166993,11.976271057128905 57.567229461669925,16.77627105712891 C52.967229461669916,20.976271057128905 51.36722946166992,27.576271057128906 51.26722946166993,33.576271057128906 C51.36722946166992,44.8762710571289 51.36722946166992,56.1762710571289 51.26722946166993,67.47627105712891 C49.66722946166992,67.77627105712891 48.067229461669925,68.1762710571289 46.36722946166992,68.47627105712891 C46.36722946166992,57.1762710571289 46.36722946166992,45.8762710571289 46.36722946166992,34.576271057128906 C46.467229461669916,26.876271057128903 48.467229461669916,18.676271057128908 54.36722946166992,13.376271057128903 C61.067229461669925,7.576271057128906 70.06722946166992,5.576271057128906 78.56722946166992,3.6762710571289077 zM113.76722946166993,15.476271057128905 C120.26722946166993,14.176271057128908 127.36722946166992,12.576271057128906 133.86722946166992,14.976271057128905 C138.16722946166993,16.476271057128905 141.0672294616699,20.676271057128908 141.96722946166992,24.976271057128905 C143.96722946166992,33.27627105712891 143.26722946166993,41.8762710571289 143.36722946166992,50.27627105712891 C141.66722946166993,50.576271057128906 140.0672294616699,50.77627105712891 138.36722946166992,51.076271057128906 C137.86722946166992,41.77627105712891 139.96722946166992,31.77627105712891 135.5672294616699,23.176271057128908 C131.0672294616699,16.27627105712891 121.76722946166993,18.576271057128906 115.06722946166991,19.876271057128903 C114.66722946166993,18.376271057128903 114.16722946166993,16.976271057128905 113.76722946166993,15.476271057128905 zM84.06722946166991,31.476271057128905 C86.06722946166991,24.376271057128903 93.56722946166991,21.576271057128906 99.86722946166992,19.576271057128906 C100.26722946166993,20.976271057128905 100.66722946166993,22.476271057128905 101.06722946166991,23.976271057128905 C97.66722946166993,25.076271057128906 94.06722946166991,26.176271057128908 91.46722946166992,28.576271057128906 C88.16722946166993,31.976271057128905 87.56722946166991,36.976271057128905 87.36722946166992,41.47627105712891 C87.26722946166993,47.97627105712891 87.46722946166992,54.3762710571289 87.26722946166993,60.77627105712891 C85.66722946166993,61.076271057128906 84.06722946166991,61.3762710571289 82.46722946166992,61.6762710571289 C82.66722946166992,51.576271057128906 81.46722946166992,41.27627105712891 84.06722946166991,31.476271057128905 zM165.36722946166992,51.576271057128906 C168.16722946166993,51.1762710571289 171.0672294616699,49.97627105712891 173.86722946166992,51.076271057128906 C184.66722946166993,54.97627105712891 195.5672294616699,58.77627105712891 206.36722946166992,62.6762710571289 C206.36722946166992,119.2762710571289 206.36722946166992,175.9762710571289 206.36722946166992,232.5762710571289 C195.46722946166992,236.7762710571289 184.66722946166993,240.87627105712892 173.76722946166993,245.0762710571289 C170.76722946166993,246.2762710571289 167.5672294616699,244.7762710571289 164.5672294616699,244.37627105712892 C110.16722946166993,233.37627105712892 55.76722946166993,222.2762710571289 1.4672294616699233,211.2762710571289 C1.2672294616699205,168.4762710571289 1.3672294616699219,125.5762710571289 1.3672294616699219,82.6762710571289 C56.067229461669925,72.3762710571289 110.76722946166993,61.97627105712891 165.36722946166992,51.576271057128906 M79.46722946166992,106.87627105712892 C79.26722946166993,119.1762710571289 79.36722946166992,131.37627105712892 79.36722946166992,143.5762710571289 C95.66722946166993,143.5762710571289 112.06722946166991,143.5762710571289 128.36722946166992,143.5762710571289 C128.36722946166992,129.1762710571289 128.36722946166992,114.6762710571289 128.36722946166992,100.27627105712891 C112.06722946166991,102.27627105712891 95.76722946166993,104.87627105712892 79.46722946166992,106.87627105712892 M39.36722946166992,112.6762710571289 C39.26722946166993,122.97627105712891 39.36722946166992,133.2762710571289 39.36722946166992,143.5762710571289 C51.967229461669916,143.5762710571289 64.66722946166992,143.5762710571289 77.36722946166992,143.5762710571289 C77.36722946166992,131.4762710571289 77.36722946166992,119.37627105712892 77.36722946166992,107.2762710571289 C64.66722946166992,108.97627105712891 51.967229461669916,110.87627105712892 39.36722946166992,112.6762710571289 M39.36722946166992,145.5762710571289 C39.36722946166992,155.87627105712892 39.26722946166993,166.1762710571289 39.36722946166992,176.5762710571289 C51.967229461669916,178.37627105712892 64.66722946166992,180.2762710571289 77.36722946166992,181.9762710571289 C77.36722946166992,169.87627105712892 77.36722946166992,157.6762710571289 77.36722946166992,145.5762710571289 C64.66722946166992,145.5762710571289 51.967229461669916,145.5762710571289 39.36722946166992,145.5762710571289 M79.36722946166992,145.5762710571289 C79.36722946166992,157.7762710571289 79.26722946166993,170.0762710571289 79.46722946166992,182.2762710571289 C95.76722946166993,184.2762710571289 112.06722946166991,186.87627105712892 128.36722946166992,188.9762710571289 C128.36722946166992,174.4762710571289 128.36722946166992,160.0762710571289 128.36722946166992,145.5762710571289 C112.06722946166991,145.5762710571289 95.66722946166993,145.5762710571289 79.36722946166992,145.5762710571289 z" id="svg_1" class=""/></g></svg>